<svg width="320" height="180" viewBox="0 0 320 180" fill="none" xmlns="http://www.w3.org/2000/svg">
  <defs>
    <linearGradient id="bg" x1="0" y1="0" x2="320" y2="180" gradientUnits="userSpaceOnUse">
      <stop offset="0" stop-color="#3B82F6" />
      <stop offset="1" stop-color="#22C55E" />
    </linearGradient>
    <filter id="shadow" x="-20%" y="-20%" width="140%" height="140%" color-interpolation-filters="sRGB">
      <feDropShadow dx="0" dy="10" stdDeviation="10" flood-color="#000000" flood-opacity="0.18" />
    </filter>
  </defs>

  <rect x="12" y="12" width="296" height="156" rx="18" fill="url(#bg)" filter="url(#shadow)" />

  <g opacity="0.25">
    <circle cx="70" cy="70" r="34" stroke="#FFFFFF" stroke-width="10" />
    <circle cx="260" cy="118" r="26" stroke="#FFFFFF" stroke-width="8" />
    <path d="M40 138C92 110 118 154 168 128C218 102 244 134 288 112" stroke="#FFFFFF" stroke-width="10" stroke-linecap="round" />
  </g>

  <g>
    <path d="M82 109L118 51L154 109H138L118 74L98 109H82Z" fill="#FFFFFF" opacity="0.95" />
    <path d="M166 109V53H202C212.493 53 221 61.5066 221 72C221 82.4934 212.493 91 202 91H184V109H166ZM184 75H200C204.418 75 208 71.4183 208 67C208 62.5817 204.418 59 200 59H184V75Z" fill="#FFFFFF" opacity="0.95" />
    <circle cx="243" cy="77" r="22" fill="#FFFFFF" opacity="0.95" />
    <path d="M238 77H248" stroke="#0EA5E9" stroke-width="6" stroke-linecap="round" />
    <path d="M243 72V82" stroke="#0EA5E9" stroke-width="6" stroke-linecap="round" />
  </g>

  <g>
    <text x="160" y="152" text-anchor="middle" font-family="ui-sans-serif, system-ui, -apple-system, Segoe UI, Roboto, Helvetica, Arial, Apple Color Emoji, Segoe UI Emoji" font-size="22" font-weight="700" fill="#FFFFFF">DEMO</text>
    <text x="160" y="170" text-anchor="middle" font-family="ui-sans-serif, system-ui, -apple-system, Segoe UI, Roboto, Helvetica, Arial, Apple Color Emoji, Segoe UI Emoji" font-size="10" font-weight="500" fill="#FFFFFF" opacity="0.9">uno + vue3</text>
  </g>
</svg>

